<?xml version="1.0" encoding="utf-8"?>
<!-- Generator: Adobe Illustrator 24.0.3, SVG Export Plug-In . SVG Version: 6.00 Build 0)  -->
<svg version="1.1" id="Layer_1" xmlns="http://www.w3.org/2000/svg" xmlns:xlink="http://www.w3.org/1999/xlink" x="0px" y="0px"
	 viewBox="0 0 850.39 283.46" style="enable-background:new 0 0 850.39 283.46;" xml:space="preserve">
<style type="text/css">
	.st0{fill:#FFFFFF;}
	.st1{fill:#E22F28;}
	.st2{fill:#03435E;}
</style>
<g>
	<g>
		<path class="st2" d="M93.37,164.16c-13.09,0-23.71-10.62-23.71-23.7c0-13.09,10.62-23.7,23.71-23.7
			c13.09,0,23.71,10.61,23.71,23.7C117.08,153.54,106.46,164.16,93.37,164.16 M127.43,163.06c4.31-6.47,6.82-14.24,6.82-22.6
			c0-22.57-18.3-40.87-40.88-40.87c-22.58,0-40.88,18.3-40.88,40.87c0,22.56,18.3,40.87,40.88,40.87c8.36,0,16.14-2.51,22.61-6.83
			l8.46,8.46l13.08-9.81L127.43,163.06z"/>
		<path class="st2" d="M644.03,133.34l2.45-13.07c0,0-18.95-5.75-34.34,4.9v52.3h16.35l-0.01-42.49
			C635.03,130.08,644.03,133.34,644.03,133.34"/>
		<path class="st2" d="M239.66,148.64c0-4.16,0.68-8.1,2.03-11.79c1.35-3.68,3.31-6.91,5.87-9.65c2.56-2.75,5.67-4.91,9.33-6.52
			c3.66-1.61,7.83-2.42,12.51-2.42c3.07,0,5.89,0.27,8.45,0.82c2.57,0.55,5.05,1.33,7.47,2.36l-3.4,13.06
			c-1.54-0.58-3.22-1.1-5.05-1.54c-1.83-0.44-3.88-0.65-6.15-0.65c-4.83,0-8.44,1.49-10.81,4.49c-2.37,3-3.56,6.95-3.56,11.84
			c0,5.2,1.11,9.22,3.34,12.07c2.23,2.86,6.13,4.28,11.69,4.28c1.97,0,4.09-0.18,6.36-0.55c2.27-0.37,4.35-0.95,6.26-1.76
			l2.31,13.39c-1.9,0.8-4.29,1.49-7.14,2.08c-2.85,0.58-6,0.88-9.43,0.88c-5.27,0-9.81-0.78-13.61-2.36
			c-3.8-1.57-6.93-3.71-9.39-6.42c-2.45-2.7-4.24-5.91-5.37-9.61C240.23,156.96,239.66,152.95,239.66,148.64"/>
		<path class="st2" d="M461.51,152.78h-36.79c0,0,0.82,12.26,17.17,12.26c8.17,0,16.35-2.45,16.35-2.45l1.64,13.08
			c0,0-8.18,3.27-19.62,3.27c-16.35,0-31.07-8.17-31.07-31.05c0-17.98,11.44-29.43,27.8-29.43
			C461.51,118.45,463.14,142.97,461.51,152.78 M436.16,129.9c-10.63,0-11.44,11.44-11.44,11.44h22.89
			C447.61,141.34,446.79,129.9,436.16,129.9"/>
		<path class="st2" d="M599.34,152.78h-36.79c0,0,0.82,12.26,17.17,12.26c8.17,0,16.36-2.45,16.36-2.45l1.64,13.08
			c0,0-8.17,3.27-19.62,3.27c-16.36,0-31.07-8.17-31.07-31.05c0-17.98,11.44-29.43,27.79-29.43
			C599.34,118.45,600.97,142.97,599.34,152.78 M574,129.9c-10.63,0-11.45,11.44-11.45,11.44h22.9
			C585.44,141.34,584.62,129.9,574,129.9"/>
		<rect x="211.77" y="119.78" class="st2" width="16.35" height="57.71"/>
		<path class="st2" d="M197.3,119.79l0.03,52.28c0,0-8.21,6.57-26.2,6.57c-16.35,0-25.34-8.18-25.34-26.16v-32.69h16.35v32.69
			c0,11.44,5.72,12.26,10.63,12.26c4.91,0,8.18-2.45,8.18-2.45l-0.01-42.49H197.3z"/>
		<path class="st2" d="M314.78,140.5c1.61-1.74,3.27-3.56,4.99-5.45c1.72-1.89,3.39-3.77,4.99-5.62c1.61-1.86,3.12-3.62,4.55-5.29
			c1.43-1.67,2.65-3.12,3.68-4.36h19.44c-3.89,4.45-7.67,8.71-11.36,12.76c-3.69,4.05-7.73,8.22-12.12,12.53
			c2.2,1.98,4.46,4.34,6.8,7.09c2.34,2.74,4.62,5.59,6.8,8.52c2.19,2.93,4.21,5.86,6.04,8.79c1.83,2.93,3.36,5.6,4.61,8.02h-18.81
			c-1.16-1.91-2.5-4.01-4-6.33c-1.49-2.31-3.08-4.61-4.77-6.92c-1.68-2.31-3.45-4.54-5.31-6.66c-1.86-2.12-3.7-3.92-5.53-5.39v25.29
			h-16.35v-72.12l16.35-2.88V140.5z"/>
		<path class="st2" d="M362.07,105.37l16.35-2.89v17h16.18v13.6h-16.18v20.29c0,3.44,0.6,6.18,1.81,8.24
			c1.21,2.05,3.64,3.07,7.3,3.07c1.76,0,3.57-0.17,5.43-0.5c1.87-0.33,3.56-0.78,5.11-1.38l2.3,12.73c-1.97,0.81-4.17,1.5-6.59,2.09
			c-2.41,0.58-5.38,0.87-8.89,0.87c-4.46,0-8.16-0.6-11.08-1.8c-2.93-1.21-5.27-2.9-7.02-5.05c-1.76-2.15-2.99-4.77-3.68-7.84
			c-0.69-3.08-1.04-6.47-1.04-10.2V105.37z"/>
		<path class="st2" d="M496.54,178.58c-4.75-0.07-8.61-0.58-11.58-1.53c-2.97-0.95-5.3-2.29-7.02-4.01c-1.72-1.71-2.9-3.8-3.52-6.25
			c-0.62-2.45-0.93-5.21-0.93-8.29v-53.14l16.35-2.88v52.73c0,1.47,0.1,2.78,0.33,3.95c0.22,1.18,0.64,2.16,1.26,2.96
			c0.62,0.81,1.51,1.46,2.69,1.98c1.16,0.51,2.74,0.84,4.72,0.98L496.54,178.58z"/>
		<path class="st2" d="M534.02,178.58c-4.75-0.07-8.62-0.58-11.58-1.53c-2.96-0.95-5.3-2.29-7.02-4.01c-1.73-1.71-2.9-3.8-3.52-6.25
			c-0.62-2.45-0.93-5.21-0.93-8.29v-53.14l16.36-2.88v52.73c0,1.47,0.11,2.78,0.33,3.95c0.22,1.18,0.64,2.16,1.26,2.96
			c0.63,0.81,1.52,1.46,2.7,1.98c1.17,0.51,2.74,0.84,4.72,0.98L534.02,178.58z"/>
		<path class="st1" d="M679.81,220.72c-6.67-1.66,53.3-71.6,43.31-99.9c-5-14.99-54.98-13.33-54.98-18.32
			c0-4.99,96.66-18.29,105.78-5.82C788.12,114.18,688.13,224.06,679.81,220.72"/>
		<path class="st1" d="M796.4,59.22c0,11.95-9.69,21.64-21.65,21.64c-11.96,0-21.66-9.69-21.66-21.64
			c0-11.96,9.69-21.65,21.66-21.65C786.71,37.56,796.4,47.26,796.4,59.22"/>
	</g>
	<g>
		<path class="st2" d="M387.12,189.71h13.58c8.5,0,15.22,2.81,15.22,11.93c0,6.51-3.77,9.12-8.5,10.7v0.07
			c5.97,1.3,10.83,4.11,10.83,12.07c0,9.26-6.79,13.23-16.46,13.23h-14.67V189.71z M400.49,211.04c6.45,0,11.73-2.33,11.73-9.26
			c0-7.06-5.28-9.05-11.59-9.05h-9.87v18.31H400.49z M401.73,234.7c7.34,0,12.75-3.02,12.75-10.35c0-7.34-5.21-10.29-13.58-10.29
			h-10.15v20.64H401.73z"/>
		<path class="st2" d="M450.14,232.5c-3.98,3.02-9.33,5.62-14.88,5.62c-5.49,0-9.67-2.26-9.67-9.33v-26.81h3.5v26.47
			c0,5.49,2.88,6.86,6.65,6.86c5.42,0,10.35-2.74,14.4-5.69v-27.63h3.43v35.73h-1.58c-1.51,0-1.85-0.48-1.85-3.84V232.5z"/>
		<path class="st2" d="M461.05,234.63v-2.81h1.37c1.71,1.58,4.87,3.5,10.01,3.5c6.58,0,9.74-2.74,9.74-7.68
			c0-4.18-2.33-5.9-9.6-7.06c-6.86-1.1-11.18-3.5-11.18-9.53c0-6.17,4.87-9.46,12-9.46c5.21,0,8.37,1.37,10.36,2.67v2.81h-1.37
			c-1.92-1.58-4.32-2.81-8.91-2.81c-5.83,0-8.85,2.19-8.85,6.51c0,4.11,2.4,5.69,9.33,6.86c7.47,1.17,11.59,3.43,11.59,9.74
			c0,6.58-4.05,10.63-12.96,10.63C466.46,237.99,463.1,236.14,461.05,234.63z"/>
		<path class="st2" d="M492.46,194.17c0-1.23,1.03-2.33,2.33-2.33s2.33,1.1,2.33,2.33c0,1.3-1.03,2.33-2.33,2.33
			S492.46,195.47,492.46,194.17z M493,237.71v-35.73h1.1c2.06,0,2.33,0.41,2.33,3.7v32.02H493z"/>
		<path class="st2" d="M509.94,207.68c4.05-3.22,9.39-6.1,15.7-6.1c5.01,0,9.26,2.06,9.26,9.53v26.61h-3.43v-26.2
			c0-5.69-3.08-7.06-7.13-7.06c-5.28,0-10.35,2.95-14.4,6.03v27.22h-3.43v-35.73h1.58c1.51,0,1.85,0.41,1.85,3.57V207.68z"/>
		<path class="st2" d="M558.84,235.18c5.69,0,9.19-1.78,11.11-3.7h1.51v2.54c-2.54,1.99-6.45,3.98-12.96,3.98
			c-10.77,0-16.73-6.93-16.73-18.04c0-11.25,6.72-18.38,15.84-18.38c8.78,0,14.67,5.07,14.67,16.73c0,0.69-0.07,1.51-0.07,1.65
			h-26.95C545.26,229.96,549.92,235.18,558.84,235.18z M545.33,217.35h23.52c-0.21-9.53-4.59-13.17-11.25-13.17
			C551.02,204.18,546.15,208.57,545.33,217.35z"/>
		<path class="st2" d="M576.81,234.63v-2.81h1.37c1.71,1.58,4.87,3.5,10.01,3.5c6.58,0,9.74-2.74,9.74-7.68
			c0-4.18-2.33-5.9-9.6-7.06c-6.86-1.1-11.18-3.5-11.18-9.53c0-6.17,4.87-9.46,12-9.46c5.21,0,8.37,1.37,10.35,2.67v2.81h-1.37
			c-1.92-1.58-4.32-2.81-8.92-2.81c-5.83,0-8.85,2.19-8.85,6.51c0,4.11,2.4,5.69,9.33,6.86c7.47,1.17,11.59,3.43,11.59,9.74
			c0,6.58-4.05,10.63-12.96,10.63C582.22,237.99,578.86,236.14,576.81,234.63z"/>
		<path class="st2" d="M606.09,234.63v-2.81h1.37c1.71,1.58,4.87,3.5,10.01,3.5c6.58,0,9.74-2.74,9.74-7.68
			c0-4.18-2.33-5.9-9.6-7.06c-6.86-1.1-11.18-3.5-11.18-9.53c0-6.17,4.87-9.46,12-9.46c5.21,0,8.37,1.37,10.35,2.67v2.81h-1.37
			c-1.92-1.58-4.32-2.81-8.92-2.81c-5.83,0-8.85,2.19-8.85,6.51c0,4.11,2.4,5.69,9.33,6.86c7.47,1.17,11.59,3.43,11.59,9.74
			c0,6.58-4.05,10.63-12.96,10.63C611.51,237.99,608.15,236.14,606.09,234.63z"/>
	</g>
</g>
</svg>
