<svg xmlns="http://www.w3.org/2000/svg" width="239" height="113" viewBox="0 0 239 113">
    <g fill="none" fill-rule="evenodd" opacity=".2">
        <g fill="#003C58">
            <g transform="translate(-698 -165) translate(698 165)">
                <circle cx="235" cy="109" r="4"/>
                <circle cx="214" cy="109" r="4"/>
                <circle cx="193" cy="109" r="4"/>
                <circle cx="172" cy="109" r="4"/>
                <circle cx="151" cy="109" r="4"/>
                <circle cx="130" cy="109" r="4"/>
                <circle cx="109" cy="109" r="4"/>
                <circle cx="88" cy="109" r="4"/>
                <circle cx="67" cy="109" r="4"/>
                <circle cx="46" cy="109" r="4"/>
                <circle cx="25" cy="109" r="4"/>
                <circle cx="4" cy="109" r="4"/>
                <circle cx="235" cy="88" r="4"/>
                <circle cx="214" cy="88" r="4"/>
                <circle cx="193" cy="88" r="4"/>
                <circle cx="172" cy="88" r="4"/>
                <circle cx="151" cy="88" r="4"/>
                <circle cx="130" cy="88" r="4"/>
                <circle cx="109" cy="88" r="4"/>
                <circle cx="88" cy="88" r="4"/>
                <circle cx="67" cy="88" r="4"/>
                <circle cx="46" cy="88" r="4"/>
                <circle cx="25" cy="88" r="4"/>
                <circle cx="4" cy="88" r="4"/>
                <circle cx="235" cy="67" r="4"/>
                <circle cx="214" cy="67" r="4"/>
                <circle cx="193" cy="67" r="4"/>
                <circle cx="172" cy="67" r="4"/>
                <circle cx="151" cy="67" r="4"/>
                <circle cx="130" cy="67" r="4"/>
                <circle cx="109" cy="67" r="4"/>
                <circle cx="88" cy="67" r="4"/>
                <circle cx="67" cy="67" r="4"/>
                <circle cx="46" cy="67" r="4"/>
                <circle cx="25" cy="67" r="4"/>
                <circle cx="4" cy="67" r="4"/>
                <circle cx="235" cy="46" r="4"/>
                <circle cx="214" cy="46" r="4"/>
                <circle cx="193" cy="46" r="4"/>
                <circle cx="172" cy="46" r="4"/>
                <circle cx="151" cy="46" r="4"/>
                <circle cx="130" cy="46" r="4"/>
                <circle cx="109" cy="46" r="4"/>
                <circle cx="88" cy="46" r="4"/>
                <circle cx="67" cy="46" r="4"/>
                <circle cx="46" cy="46" r="4"/>
                <circle cx="25" cy="46" r="4"/>
                <circle cx="4" cy="46" r="4"/>
                <circle cx="235" cy="25" r="4"/>
                <circle cx="214" cy="25" r="4"/>
                <circle cx="193" cy="25" r="4"/>
                <circle cx="172" cy="25" r="4"/>
                <circle cx="151" cy="25" r="4"/>
                <circle cx="130" cy="25" r="4"/>
                <circle cx="109" cy="25" r="4"/>
                <circle cx="88" cy="25" r="4"/>
                <circle cx="67" cy="25" r="4"/>
                <circle cx="46" cy="25" r="4"/>
                <circle cx="25" cy="25" r="4"/>
                <circle cx="4" cy="25" r="4"/>
                <circle cx="235" cy="4" r="4"/>
                <circle cx="214" cy="4" r="4"/>
                <circle cx="193" cy="4" r="4"/>
                <circle cx="172" cy="4" r="4"/>
                <circle cx="151" cy="4" r="4"/>
                <circle cx="130" cy="4" r="4"/>
                <circle cx="109" cy="4" r="4"/>
                <circle cx="88" cy="4" r="4"/>
                <circle cx="67" cy="4" r="4"/>
                <circle cx="46" cy="4" r="4"/>
                <circle cx="25" cy="4" r="4"/>
                <circle cx="4" cy="4" r="4"/>
            </g>
        </g>
    </g>
</svg>
