<svg xmlns="http://www.w3.org/2000/svg" width="242" height="305" viewBox="0 0 242 305">
    <g fill="none" fill-rule="evenodd" opacity=".3">
        <g fill="#009FE4">
            <g transform="translate(-1184 -2814) translate(1184 2814)">
                <circle cx="236.5" cy="299.5" r="5.5"/>
                <circle cx="215.5" cy="299.5" r="5.5"/>
                <circle cx="194.5" cy="299.5" r="5.5"/>
                <circle cx="173.5" cy="299.5" r="5.5"/>
                <circle cx="152.5" cy="299.5" r="5.5"/>
                <circle cx="131.5" cy="299.5" r="5.5"/>
                <circle cx="110.5" cy="299.5" r="5.5"/>
                <circle cx="89.5" cy="299.5" r="5.5"/>
                <circle cx="68.5" cy="299.5" r="5.5"/>
                <circle cx="47.5" cy="299.5" r="5.5"/>
                <circle cx="26.5" cy="299.5" r="5.5"/>
                <circle cx="5.5" cy="299.5" r="5.5"/>
                <circle cx="236.5" cy="278.5" r="5.5"/>
                <circle cx="215.5" cy="278.5" r="5.5"/>
                <circle cx="194.5" cy="278.5" r="5.5"/>
                <circle cx="173.5" cy="278.5" r="5.5"/>
                <circle cx="152.5" cy="278.5" r="5.5"/>
                <circle cx="131.5" cy="278.5" r="5.5"/>
                <circle cx="110.5" cy="278.5" r="5.5"/>
                <circle cx="89.5" cy="278.5" r="5.5"/>
                <circle cx="68.5" cy="278.5" r="5.5"/>
                <circle cx="47.5" cy="278.5" r="5.5"/>
                <circle cx="26.5" cy="278.5" r="5.5"/>
                <circle cx="5.5" cy="278.5" r="5.5"/>
                <circle cx="236.5" cy="257.5" r="5.5"/>
                <circle cx="215.5" cy="257.5" r="5.5"/>
                <circle cx="194.5" cy="257.5" r="5.5"/>
                <circle cx="173.5" cy="257.5" r="5.5"/>
                <circle cx="152.5" cy="257.5" r="5.5"/>
                <circle cx="131.5" cy="257.5" r="5.5"/>
                <circle cx="110.5" cy="257.5" r="5.5"/>
                <circle cx="89.5" cy="257.5" r="5.5"/>
                <circle cx="68.5" cy="257.5" r="5.5"/>
                <circle cx="47.5" cy="257.5" r="5.5"/>
                <circle cx="26.5" cy="257.5" r="5.5"/>
                <circle cx="5.5" cy="257.5" r="5.5"/>
                <circle cx="236.5" cy="236.5" r="5.5"/>
                <circle cx="215.5" cy="236.5" r="5.5"/>
                <circle cx="194.5" cy="236.5" r="5.5"/>
                <circle cx="173.5" cy="236.5" r="5.5"/>
                <circle cx="152.5" cy="236.5" r="5.5"/>
                <circle cx="131.5" cy="236.5" r="5.5"/>
                <circle cx="110.5" cy="236.5" r="5.5"/>
                <circle cx="89.5" cy="236.5" r="5.5"/>
                <circle cx="68.5" cy="236.5" r="5.5"/>
                <circle cx="47.5" cy="236.5" r="5.5"/>
                <circle cx="26.5" cy="236.5" r="5.5"/>
                <circle cx="5.5" cy="236.5" r="5.5"/>
                <circle cx="236.5" cy="215.5" r="5.5"/>
                <circle cx="215.5" cy="215.5" r="5.5"/>
                <circle cx="194.5" cy="215.5" r="5.5"/>
                <circle cx="173.5" cy="215.5" r="5.5"/>
                <circle cx="152.5" cy="215.5" r="5.5"/>
                <circle cx="131.5" cy="215.5" r="5.5"/>
                <circle cx="110.5" cy="215.5" r="5.5"/>
                <circle cx="89.5" cy="215.5" r="5.5"/>
                <circle cx="68.5" cy="215.5" r="5.5"/>
                <circle cx="47.5" cy="215.5" r="5.5"/>
                <circle cx="26.5" cy="215.5" r="5.5"/>
                <circle cx="5.5" cy="215.5" r="5.5"/>
                <circle cx="236.5" cy="194.5" r="5.5"/>
                <circle cx="215.5" cy="194.5" r="5.5"/>
                <circle cx="194.5" cy="194.5" r="5.5"/>
                <circle cx="173.5" cy="194.5" r="5.5"/>
                <circle cx="152.5" cy="194.5" r="5.5"/>
                <circle cx="131.5" cy="194.5" r="5.5"/>
                <circle cx="110.5" cy="194.5" r="5.5"/>
                <circle cx="89.5" cy="194.5" r="5.5"/>
                <circle cx="68.5" cy="194.5" r="5.5"/>
                <circle cx="47.5" cy="194.5" r="5.5"/>
                <circle cx="26.5" cy="194.5" r="5.5"/>
                <circle cx="5.5" cy="194.5" r="5.5"/>
                <circle cx="236.5" cy="173.5" r="5.5"/>
                <circle cx="215.5" cy="173.5" r="5.5"/>
                <circle cx="194.5" cy="173.5" r="5.5"/>
                <circle cx="173.5" cy="173.5" r="5.5"/>
                <circle cx="152.5" cy="173.5" r="5.5"/>
                <circle cx="131.5" cy="173.5" r="5.5"/>
                <circle cx="110.5" cy="173.5" r="5.5"/>
                <circle cx="89.5" cy="173.5" r="5.5"/>
                <circle cx="68.5" cy="173.5" r="5.5"/>
                <circle cx="47.5" cy="173.5" r="5.5"/>
                <circle cx="26.5" cy="173.5" r="5.5"/>
                <circle cx="5.5" cy="173.5" r="5.5"/>
                <circle cx="236.5" cy="152.5" r="5.5"/>
                <circle cx="215.5" cy="152.5" r="5.5"/>
                <circle cx="194.5" cy="152.5" r="5.5"/>
                <circle cx="173.5" cy="152.5" r="5.5"/>
                <circle cx="152.5" cy="152.5" r="5.5"/>
                <circle cx="131.5" cy="152.5" r="5.5"/>
                <circle cx="110.5" cy="152.5" r="5.5"/>
                <circle cx="89.5" cy="152.5" r="5.5"/>
                <circle cx="68.5" cy="152.5" r="5.5"/>
                <circle cx="47.5" cy="152.5" r="5.5"/>
                <circle cx="26.5" cy="152.5" r="5.5"/>
                <circle cx="5.5" cy="152.5" r="5.5"/>
                <circle cx="236.5" cy="131.5" r="5.5"/>
                <circle cx="215.5" cy="131.5" r="5.5"/>
                <circle cx="194.5" cy="131.5" r="5.5"/>
                <circle cx="173.5" cy="131.5" r="5.5"/>
                <circle cx="152.5" cy="131.5" r="5.5"/>
                <circle cx="131.5" cy="131.5" r="5.5"/>
                <circle cx="110.5" cy="131.5" r="5.5"/>
                <circle cx="89.5" cy="131.5" r="5.5"/>
                <circle cx="68.5" cy="131.5" r="5.5"/>
                <circle cx="47.5" cy="131.5" r="5.5"/>
                <circle cx="26.5" cy="131.5" r="5.5"/>
                <circle cx="5.5" cy="131.5" r="5.5"/>
                <circle cx="236.5" cy="110.5" r="5.5"/>
                <circle cx="215.5" cy="110.5" r="5.5"/>
                <circle cx="194.5" cy="110.5" r="5.5"/>
                <circle cx="173.5" cy="110.5" r="5.5"/>
                <circle cx="152.5" cy="110.5" r="5.5"/>
                <circle cx="131.5" cy="110.5" r="5.5"/>
                <circle cx="110.5" cy="110.5" r="5.5"/>
                <circle cx="89.5" cy="110.5" r="5.5"/>
                <circle cx="68.5" cy="110.5" r="5.5"/>
                <circle cx="47.5" cy="110.5" r="5.5"/>
                <circle cx="26.5" cy="110.5" r="5.5"/>
                <circle cx="5.5" cy="110.5" r="5.5"/>
                <circle cx="236.5" cy="89.5" r="5.5"/>
                <circle cx="215.5" cy="89.5" r="5.5"/>
                <circle cx="194.5" cy="89.5" r="5.5"/>
                <circle cx="173.5" cy="89.5" r="5.5"/>
                <circle cx="152.5" cy="89.5" r="5.5"/>
                <circle cx="131.5" cy="89.5" r="5.5"/>
                <circle cx="110.5" cy="89.5" r="5.5"/>
                <circle cx="89.5" cy="89.5" r="5.5"/>
                <circle cx="68.5" cy="89.5" r="5.5"/>
                <circle cx="47.5" cy="89.5" r="5.5"/>
                <circle cx="26.5" cy="89.5" r="5.5"/>
                <circle cx="5.5" cy="89.5" r="5.5"/>
                <circle cx="236.5" cy="68.5" r="5.5"/>
                <circle cx="215.5" cy="68.5" r="5.5"/>
                <circle cx="194.5" cy="68.5" r="5.5"/>
                <circle cx="173.5" cy="68.5" r="5.5"/>
                <circle cx="152.5" cy="68.5" r="5.5"/>
                <circle cx="131.5" cy="68.5" r="5.5"/>
                <circle cx="110.5" cy="68.5" r="5.5"/>
                <circle cx="89.5" cy="68.5" r="5.5"/>
                <circle cx="68.5" cy="68.5" r="5.5"/>
                <circle cx="47.5" cy="68.5" r="5.5"/>
                <circle cx="26.5" cy="68.5" r="5.5"/>
                <circle cx="5.5" cy="68.5" r="5.5"/>
                <circle cx="236.5" cy="47.5" r="5.5"/>
                <circle cx="215.5" cy="47.5" r="5.5"/>
                <circle cx="194.5" cy="47.5" r="5.5"/>
                <circle cx="173.5" cy="47.5" r="5.5"/>
                <circle cx="152.5" cy="47.5" r="5.5"/>
                <circle cx="131.5" cy="47.5" r="5.5"/>
                <circle cx="110.5" cy="47.5" r="5.5"/>
                <circle cx="89.5" cy="47.5" r="5.5"/>
                <circle cx="68.5" cy="47.5" r="5.5"/>
                <circle cx="47.5" cy="47.5" r="5.5"/>
                <circle cx="26.5" cy="47.5" r="5.5"/>
                <circle cx="5.5" cy="47.5" r="5.5"/>
                <circle cx="236.5" cy="26.5" r="5.5"/>
                <circle cx="215.5" cy="26.5" r="5.5"/>
                <circle cx="194.5" cy="26.5" r="5.5"/>
                <circle cx="173.5" cy="26.5" r="5.5"/>
                <circle cx="152.5" cy="26.5" r="5.5"/>
                <circle cx="131.5" cy="26.5" r="5.5"/>
                <circle cx="110.5" cy="26.5" r="5.5"/>
                <circle cx="89.5" cy="26.5" r="5.5"/>
                <circle cx="68.5" cy="26.5" r="5.5"/>
                <circle cx="47.5" cy="26.5" r="5.5"/>
                <circle cx="26.5" cy="26.5" r="5.5"/>
                <circle cx="5.5" cy="26.5" r="5.5"/>
                <circle cx="236.5" cy="5.5" r="5.5"/>
                <circle cx="215.5" cy="5.5" r="5.5"/>
                <circle cx="194.5" cy="5.5" r="5.5"/>
                <circle cx="173.5" cy="5.5" r="5.5"/>
                <circle cx="152.5" cy="5.5" r="5.5"/>
                <circle cx="131.5" cy="5.5" r="5.5"/>
                <circle cx="110.5" cy="5.5" r="5.5"/>
                <circle cx="89.5" cy="5.5" r="5.5"/>
                <circle cx="68.5" cy="5.5" r="5.5"/>
                <circle cx="47.5" cy="5.5" r="5.5"/>
                <circle cx="26.5" cy="5.5" r="5.5"/>
                <circle cx="5.5" cy="5.5" r="5.5"/>
            </g>
        </g>
    </g>
</svg>
