<svg xmlns="http://www.w3.org/2000/svg" width="34" height="34" viewBox="0 0 34 34">
    <g fill="none" fill-rule="evenodd" stroke-linecap="round" stroke-linejoin="round">
        <g fill="#EFF8FE" stroke="#003C58" stroke-width="3.333">
            <g>
                <path d="M10 15l3.334 3.333L20 11.667M8.058 2.828c1.196-.095 2.331-.565 3.244-1.343 2.131-1.816 5.265-1.816 7.396 0 .913.778 2.048 1.248 3.244 1.343 2.791.223 5.007 2.44 5.23 5.23.095 1.196.566 2.331 1.344 3.244 1.816 2.131 1.816 5.265 0 7.396-.778.913-1.249 2.048-1.344 3.244-.223 2.79-2.439 5.007-5.23 5.23-1.195.095-2.33.565-3.244 1.343-2.13 1.816-5.265 1.816-7.396 0-.913-.778-2.048-1.248-3.244-1.343-2.79-.223-5.007-2.44-5.23-5.23-.095-1.196-.565-2.331-1.343-3.244-1.816-2.131-1.816-5.265 0-7.396.778-.913 1.248-2.048 1.344-3.244.222-2.79 2.438-5.007 5.23-5.23z" transform="translate(-613 -3676) translate(615 3678)"/>
            </g>
        </g>
    </g>
</svg>
