<svg xmlns="http://www.w3.org/2000/svg" width="45" height="30" viewBox="0 0 45 30">
    <g fill="none" fill-rule="evenodd">
        <g>
            <g>
                <path fill="#F9F9F9" fill-rule="nonzero" d="M40.127 27.803H3.118c-1.552 0-2.81-1.259-2.81-2.811V2.99C.307 1.438 1.565.18 3.117.18h37.009c1.552 0 2.81 1.258 2.81 2.81v22.002c0 1.552-1.258 2.81-2.81 2.81z" transform="translate(-431 -4562) translate(432 4563)"/>
                <path fill-rule="nonzero" d="M10.834 4.46h-5c-.697 0-1.262.566-1.262 1.263v4.002c0 .697.565 1.262 1.262 1.262h5c.697 0 1.262-.565 1.262-1.262V5.723c0-.697-.565-1.262-1.262-1.262z" transform="translate(-431 -4562) translate(432 4563)"/>
                <path stroke="#003C58" stroke-linecap="round" stroke-linejoin="round" stroke-width="1.25" d="M40.127 27.803H3.118c-1.552 0-2.81-1.259-2.81-2.811V2.99C.307 1.438 1.565.18 3.117.18h37.009c1.552 0 2.81 1.258 2.81 2.81v22.002c0 1.552-1.258 2.81-2.81 2.81z" transform="translate(-431 -4562) translate(432 4563)"/>
                <path stroke="#003C58" stroke-linecap="round" stroke-linejoin="round" stroke-width=".85" d="M10.834 4.46h-5c-.697 0-1.262.566-1.262 1.263v4.002c0 .697.565 1.262 1.262 1.262h5c.697 0 1.262-.565 1.262-1.262V5.723c0-.697-.565-1.262-1.262-1.262z" transform="translate(-431 -4562) translate(432 4563)"/>
                <path stroke="#003C58" stroke-linecap="round" stroke-linejoin="round" stroke-width=".8" d="M7.254 4.462c-.142.307-.31.759-.41 1.321-.098.547-.131 1.205-.015 1.94.095.592.285 1.232.625 1.91M4.572 9.632L12.096 9.632M6.844 5.783L4.571 5.783M6.829 7.723L4.571 7.723M9.575 4.462c.14.307.306.759.408 1.321.098.547.13 1.205.015 1.94-.096.592-.286 1.232-.625 1.91M12.095 5.783L9.983 5.783M12.095 7.723L9.998 7.723" transform="translate(-431 -4562) translate(432 4563)"/>
                <path stroke="#003C58" stroke-linecap="round" stroke-linejoin="round" stroke-width="1.52" d="M24.909 5.137L38.133 5.137M4.434 20.03L19.099 20.03" transform="translate(-431 -4562) translate(432 4563)"/>
                <path fill="#003C58" fill-rule="nonzero" d="M3.865 14.503c0-.085.02-.16.06-.227.039-.066.092-.123.158-.17.066-.048.143-.084.23-.11.087-.023.177-.036.272-.036.095 0 .185.013.273.037.086.025.163.06.229.108.067.048.119.105.16.171.038.066.058.142.058.227v1.486c0 .086-.02.162-.059.228-.04.067-.092.123-.16.17-.065.047-.142.084-.228.11-.088.023-.178.036-.273.036-.095 0-.185-.013-.272-.037-.087-.025-.164-.062-.23-.108-.066-.048-.12-.104-.159-.17-.039-.067-.059-.143-.059-.23v-1.485zm.484 1.486c0 .052.022.096.066.13.044.035.1.052.17.052s.127-.017.17-.052c.045-.034.067-.078.067-.13v-1.486c0-.05-.022-.094-.066-.13-.044-.034-.101-.05-.171-.05s-.126.016-.17.05c-.044.036-.066.08-.066.13v1.486zM5.627 14.503c0-.085.02-.16.059-.227.04-.066.092-.123.159-.17.066-.048.143-.084.23-.11.086-.023.177-.036.271-.036.095 0 .186.013.273.037.087.025.163.06.23.108.066.048.118.105.158.171.04.066.06.142.06.227v1.486c0 .086-.02.162-.06.228-.04.067-.092.123-.159.17-.066.047-.142.084-.229.11-.087.023-.178.036-.273.036-.094 0-.185-.013-.272-.037-.086-.025-.163-.062-.23-.108-.066-.048-.118-.104-.158-.17-.04-.067-.06-.143-.06-.23v-1.485zm.483 1.486c0 .052.022.096.067.13.043.035.1.052.17.052s.126-.017.17-.052c.044-.034.066-.078.066-.13v-1.486c0-.05-.022-.094-.066-.13-.044-.034-.1-.05-.17-.05s-.127.016-.17.05c-.045.036-.067.08-.067.13v1.486zM7.388 14.503c0-.085.02-.16.06-.227.039-.066.092-.123.158-.17.066-.048.143-.084.23-.11.086-.023.177-.036.272-.036.095 0 .185.013.273.037.086.025.162.06.229.108s.119.105.16.171c.038.066.057.142.057.227v1.486c0 .086-.02.162-.058.228-.04.067-.092.123-.16.17-.066.047-.142.084-.228.11-.088.023-.178.036-.273.036-.095 0-.186-.013-.272-.037-.087-.025-.164-.062-.23-.108-.066-.048-.12-.104-.159-.17-.04-.067-.059-.143-.059-.23v-1.485zm.484 1.486c0 .052.022.096.066.13.044.035.1.052.17.052s.127-.017.17-.052c.045-.034.067-.078.067-.13v-1.486c0-.05-.022-.094-.067-.13-.043-.034-.1-.05-.17-.05s-.126.016-.17.05c-.044.036-.066.08-.066.13v1.486zM9.15 14.503c0-.085.02-.16.059-.227.04-.066.092-.123.158-.17.067-.048.143-.084.23-.11.087-.023.178-.036.272-.036.095 0 .186.013.273.037.087.025.163.06.229.108.067.048.12.105.16.171.038.066.058.142.058.227v1.486c0 .086-.02.162-.059.228-.04.067-.092.123-.159.17-.066.047-.142.084-.229.11-.087.023-.178.036-.273.036-.094 0-.185-.013-.272-.037-.087-.025-.163-.062-.23-.108-.066-.048-.119-.104-.158-.17-.04-.067-.06-.143-.06-.23v-1.485zm.483 1.486c0 .052.022.096.066.13.044.035.101.052.17.052.07 0 .127-.017.17-.052.045-.034.067-.078.067-.13v-1.486c0-.05-.022-.094-.066-.13-.044-.034-.1-.05-.17-.05s-.127.016-.17.05c-.045.036-.067.08-.067.13v1.486zM12.672 14.503c0-.085.02-.16.059-.227.04-.066.092-.123.158-.17.067-.048.144-.084.23-.11.087-.023.178-.036.272-.036.096 0 .186.013.273.037.087.025.163.06.23.108.066.048.118.105.159.171.038.066.058.142.058.227v1.486c0 .086-.02.162-.058.228-.04.067-.093.123-.16.17-.066.047-.142.084-.229.11-.087.023-.177.036-.273.036-.094 0-.185-.013-.272-.037-.086-.025-.163-.062-.23-.108-.066-.048-.119-.104-.158-.17-.04-.067-.06-.143-.06-.23v-1.485zm.483 1.486c0 .052.022.096.067.13.043.035.1.052.17.052s.126-.017.17-.052c.044-.034.066-.078.066-.13v-1.486c0-.05-.022-.094-.066-.13-.044-.034-.1-.05-.17-.05s-.127.016-.17.05c-.045.036-.067.08-.067.13v1.486zM14.433 14.503c0-.085.02-.16.06-.227.039-.066.092-.123.158-.17.066-.048.143-.084.23-.11.086-.023.177-.036.272-.036.095 0 .185.013.273.037.086.025.163.06.229.108.067.048.119.105.159.171.039.066.059.142.059.227v1.486c0 .086-.02.162-.06.228-.04.067-.091.123-.158.17-.066.047-.143.084-.23.11-.087.023-.177.036-.272.036-.095 0-.186-.013-.272-.037-.087-.025-.164-.062-.23-.108-.066-.048-.12-.104-.159-.17-.039-.067-.059-.143-.059-.23v-1.485zm.484 1.486c0 .052.022.096.066.13.044.035.1.052.17.052s.127-.017.17-.052c.045-.034.067-.078.067-.13v-1.486c0-.05-.022-.094-.067-.13-.043-.034-.1-.05-.17-.05s-.126.016-.17.05c-.044.036-.066.08-.066.13v1.486zM16.195 14.503c0-.085.02-.16.059-.227.04-.066.092-.123.158-.17.067-.048.144-.084.23-.11.087-.023.178-.036.272-.036.096 0 .186.013.273.037.087.025.163.06.23.108.066.048.118.105.158.171.04.066.059.142.059.227v1.486c0 .086-.02.162-.059.228-.04.067-.092.123-.159.17-.066.047-.142.084-.229.11-.087.023-.177.036-.273.036-.094 0-.185-.013-.272-.037-.086-.025-.163-.062-.23-.108-.066-.048-.119-.104-.158-.17-.04-.067-.06-.143-.06-.23v-1.485zm.483 1.486c0 .052.022.096.067.13.043.035.1.052.17.052.069 0 .126-.017.17-.052.044-.034.066-.078.066-.13v-1.486c0-.05-.022-.094-.066-.13-.044-.034-.101-.05-.17-.05-.07 0-.127.016-.17.05-.045.036-.067.08-.067.13v1.486zM17.956 14.503c0-.085.02-.16.06-.227.039-.066.092-.123.158-.17.066-.048.143-.084.23-.11.086-.023.177-.036.272-.036.095 0 .185.013.273.037.086.025.162.06.229.108s.119.105.159.171c.039.066.058.142.058.227v1.486c0 .086-.02.162-.058.228-.04.067-.092.123-.16.17-.066.047-.142.084-.228.11-.088.023-.178.036-.273.036-.095 0-.186-.013-.272-.037-.087-.025-.164-.062-.23-.108-.066-.048-.12-.104-.159-.17-.04-.067-.059-.143-.059-.23v-1.485zm.484 1.486c0 .052.022.096.066.13.043.035.1.052.17.052s.127-.017.17-.052c.045-.034.067-.078.067-.13v-1.486c0-.05-.022-.094-.067-.13-.043-.034-.1-.05-.17-.05s-.127.016-.17.05c-.045.036-.066.08-.066.13v1.486zM21.478 14.503c0-.085.02-.16.06-.227.039-.066.092-.123.158-.17.066-.048.143-.084.23-.11.087-.023.177-.036.272-.036.095 0 .185.013.273.037.086.025.162.06.229.108s.119.105.16.171c.038.066.058.142.058.227v1.486c0 .086-.02.162-.059.228-.04.067-.092.123-.16.17-.066.047-.142.084-.228.11-.088.023-.178.036-.273.036-.095 0-.185-.013-.272-.037-.087-.025-.164-.062-.23-.108-.066-.048-.12-.104-.158-.17-.04-.067-.06-.143-.06-.23v-1.485zm.484 1.486c0 .052.022.096.066.13.044.035.1.052.17.052s.127-.017.17-.052c.045-.034.067-.078.067-.13v-1.486c0-.05-.022-.094-.066-.13-.044-.034-.101-.05-.171-.05s-.126.016-.17.05c-.044.036-.066.08-.066.13v1.486zM23.24 14.503c0-.085.02-.16.059-.227.04-.066.092-.123.158-.17.067-.048.144-.084.23-.11.087-.023.178-.036.272-.036.096 0 .186.013.273.037.087.025.163.06.23.108.066.048.118.105.159.171.038.066.058.142.058.227v1.486c0 .086-.02.162-.058.228-.04.067-.093.123-.16.17-.066.047-.142.084-.229.11-.087.023-.177.036-.273.036-.094 0-.185-.013-.272-.037-.086-.025-.163-.062-.23-.108-.066-.048-.119-.104-.158-.17-.04-.067-.06-.143-.06-.23v-1.485zm.483 1.486c0 .052.022.096.066.13.044.035.101.052.17.052.07 0 .127-.017.17-.052.045-.034.067-.078.067-.13v-1.486c0-.05-.022-.094-.066-.13-.044-.034-.1-.05-.17-.05s-.127.016-.17.05c-.045.036-.067.08-.067.13v1.486zM25.001 14.503c0-.085.02-.16.06-.227.039-.066.092-.123.158-.17.066-.048.143-.084.23-.11.086-.023.177-.036.272-.036.095 0 .185.013.273.037.086.025.162.06.229.108s.119.105.159.171c.039.066.059.142.059.227v1.486c0 .086-.02.162-.06.228-.04.067-.091.123-.158.17-.067.047-.143.084-.23.11-.087.023-.177.036-.272.036-.095 0-.186-.013-.272-.037-.087-.025-.164-.062-.23-.108-.066-.048-.12-.104-.159-.17-.039-.067-.059-.143-.059-.23v-1.485zm.484 1.486c0 .052.022.096.066.13.044.035.1.052.17.052s.127-.017.17-.052c.045-.034.067-.078.067-.13v-1.486c0-.05-.022-.094-.067-.13-.043-.034-.1-.05-.17-.05s-.126.016-.17.05c-.045.036-.066.08-.066.13v1.486zM26.763 14.503c0-.085.02-.16.059-.227.04-.066.092-.123.158-.17.067-.048.143-.084.23-.11.087-.023.178-.036.272-.036.095 0 .186.013.273.037.087.025.163.06.23.108.066.048.118.105.158.171.04.066.059.142.059.227v1.486c0 .086-.02.162-.059.228-.04.067-.092.123-.159.17-.066.047-.142.084-.229.11-.087.023-.178.036-.273.036-.094 0-.185-.013-.272-.037-.087-.025-.163-.062-.23-.108-.066-.048-.119-.104-.158-.17-.04-.067-.06-.143-.06-.23v-1.485zm.483 1.486c0 .052.022.096.066.13.044.035.101.052.17.052.07 0 .127-.017.17-.052.045-.034.067-.078.067-.13v-1.486c0-.05-.022-.094-.066-.13-.044-.034-.101-.05-.17-.05-.07 0-.127.016-.17.05-.045.036-.067.08-.067.13v1.486zM30.285 14.503c0-.085.02-.16.06-.227.039-.066.091-.123.158-.17.066-.048.143-.084.23-.11.086-.023.177-.036.271-.036.096 0 .186.013.273.037.087.025.163.06.23.108.066.048.118.105.159.171.038.066.058.142.058.227v1.486c0 .086-.02.162-.058.228-.04.067-.093.123-.16.17-.066.047-.142.084-.229.11-.087.023-.177.036-.273.036-.094 0-.185-.013-.272-.037-.086-.025-.163-.062-.23-.108-.066-.048-.118-.104-.158-.17-.04-.067-.06-.143-.06-.23v-1.485zm.483 1.486c0 .052.022.096.067.13.043.035.1.052.17.052s.126-.017.17-.052c.044-.034.066-.078.066-.13v-1.486c0-.05-.022-.094-.066-.13-.044-.034-.1-.05-.17-.05s-.127.016-.17.05c-.045.036-.067.08-.067.13v1.486zM32.046 14.503c0-.085.02-.16.06-.227.039-.066.092-.123.158-.17.066-.048.143-.084.23-.11.087-.023.177-.036.272-.036.095 0 .185.013.273.037.086.025.162.06.229.108s.119.105.16.171c.038.066.057.142.057.227v1.486c0 .086-.02.162-.058.228-.04.067-.092.123-.16.17-.066.047-.142.084-.228.11-.088.023-.178.036-.273.036-.095 0-.185-.013-.272-.037-.087-.025-.164-.062-.23-.108-.066-.048-.12-.104-.159-.17-.04-.067-.059-.143-.059-.23v-1.485zm.484 1.486c0 .052.022.096.066.13.044.035.1.052.17.052s.127-.017.17-.052c.045-.034.067-.078.067-.13v-1.486c0-.05-.022-.094-.066-.13-.044-.034-.101-.05-.171-.05s-.126.016-.17.05c-.044.036-.066.08-.066.13v1.486zM33.808 14.503c0-.085.02-.16.059-.227.04-.066.092-.123.158-.17.067-.048.144-.084.23-.11.087-.023.178-.036.272-.036.095 0 .186.013.273.037.087.025.163.06.23.108.066.048.118.105.158.171.04.066.059.142.059.227v1.486c0 .086-.02.162-.059.228-.04.067-.092.123-.159.17-.066.047-.142.084-.229.11-.087.023-.178.036-.273.036-.094 0-.185-.013-.272-.037-.086-.025-.163-.062-.23-.108-.066-.048-.119-.104-.158-.17-.04-.067-.06-.143-.06-.23v-1.485zm.483 1.486c0 .052.022.096.066.13.044.035.101.052.17.052.07 0 .127-.017.17-.052.045-.034.067-.078.067-.13v-1.486c0-.05-.022-.094-.066-.13-.044-.034-.1-.05-.17-.05s-.127.016-.17.05c-.045.036-.067.08-.067.13v1.486zM35.569 14.503c0-.085.02-.16.06-.227.039-.066.092-.123.158-.17.066-.048.143-.084.23-.11.086-.023.177-.036.272-.036.095 0 .185.013.273.037.086.025.162.06.229.108s.119.105.159.171c.039.066.058.142.058.227v1.486c0 .086-.02.162-.058.228-.04.067-.092.123-.16.17-.066.047-.142.084-.228.11-.088.023-.178.036-.273.036-.095 0-.186-.013-.272-.037-.087-.025-.164-.062-.23-.108-.066-.048-.12-.104-.159-.17-.04-.067-.059-.143-.059-.23v-1.485zm.483 1.486c0 .052.022.096.067.13.043.035.1.052.17.052s.127-.017.17-.052c.045-.034.067-.078.067-.13v-1.486c0-.05-.022-.094-.067-.13-.043-.034-.1-.05-.17-.05s-.127.016-.17.05c-.045.036-.067.08-.067.13v1.486z" transform="translate(-431 -4562) translate(432 4563)"/>
            </g>
        </g>
    </g>
</svg>
