<svg xmlns="http://www.w3.org/2000/svg" width="34" height="28" viewBox="0 0 34 28">
    <g fill="none" fill-rule="evenodd">
        <g fill="#003C58" fill-rule="nonzero">
            <g>
                <path d="M25.195.384c-.561.058-1.034.586-1.03 1.15v4.987h-.924c-1.729-1.438-3.948-2.302-6.364-2.302s-4.636.864-6.365 2.302H3.716c-.562.058-1.034.586-1.031 1.15v4.603c0 .602.548 1.15 1.15 1.15h3.093c-.02.253-.024.51-.024.768 0 .257.005.514.024.767H1.414c-.391.038-.754.293-.924.647-.17.355-.142.797.073 1.127l6.904 10.74c.266.417.821.625 1.296.486.474-.14.828-.615.826-1.11v-4.986h.923c1.73 1.438 3.949 2.301 6.365 2.301 2.416 0 4.635-.863 6.364-2.301h6.677c.602 0 1.15-.548 1.15-1.15V16.11c0-.603-.548-1.151-1.15-1.151h-3.093c.02-.253.024-.51.024-.767 0-.258-.004-.515-.024-.767h5.394c.412 0 .815-.238 1.013-.599.198-.36.181-.83-.042-1.175L26.286.91c-.228-.359-.668-.572-1.09-.527zm.548 2.542l6.167 9.194H26.6c-.402-1.325-.957-2.571-1.65-3.722h.072c.914 0 .72-.91.72-1.885V2.926zM16.87 5.51c4.805 0 8.671 3.867 8.671 8.671 0 4.805-3.866 8.671-8.67 8.671-4.805 0-8.672-3.866-8.672-8.67 0-4.805 3.867-8.672 8.671-8.672zm-1.689 14.005v-2.929h2.043l1.685 2.929h1.907v-2.929h1.009v-1.263h-1.01v-.842h1.01v-1.263h-1.01v-2.83H19.04v2.83h-2.025l-1.61-2.83h-2v2.83h-1.114v1.263h1.114v.842h-1.114v1.263h1.114v2.929h1.777zm1.313-4.192h-1.313v-.842h.83l.483.842zm2.545 0h-.824l-.477-.842h1.3v.842zM4.224 8.048H9.03c-1.98 1.941-1.713 3.063-1.98 3.882H4.225V8.048zm-1.85 8.43h4.651c.263 1.816 1.269 3.26 1.726 3.972-.462-.028-.693.342-.693 1.109v3.908l-5.684-8.989zm24.24-.098h3.083v4.035h-4.895c.458-.712 1.442-1.408 1.812-4.035z" transform="translate(-505 -4563) translate(505 4563)"/>
            </g>
        </g>
    </g>
</svg>
