<svg xmlns="http://www.w3.org/2000/svg" width="28" height="28" viewBox="0 0 28 28">
    <g fill="none" fill-rule="evenodd">
        <g fill="#003C58" fill-rule="nonzero">
            <g>
                <path d="M10.093 0H2.28C1.021.001.002 1.021 0 2.28v7.813c.002 1.258 1.021 2.278 2.28 2.28h7.813c1.259-.002 2.278-1.022 2.28-2.28V2.279C12.37 1.021 11.351.001 10.092 0zm.822 10.551c0 .201-.163.364-.364.364H1.814c-.2 0-.364-.163-.364-.364V1.814c0-.2.163-.364.364-.364h8.737c.201 0 .364.163.364.364v8.737zm-.822 5.077H2.28C1.021 15.629.002 16.648 0 17.907v7.814C.002 26.979 1.021 27.999 2.28 28h7.813c1.259-.001 2.278-1.021 2.28-2.28v-7.813c-.002-1.258-1.021-2.278-2.28-2.28zm.822 10.553c0 .201-.163.364-.364.364H1.814c-.2 0-.364-.163-.364-.364v-8.737c0-.2.163-.364.364-.364h8.737c.201 0 .364.163.364.364v8.737zM25.721 0h-7.814c-1.258.001-2.277 1.021-2.279 2.28v7.813c.002 1.258 1.021 2.278 2.28 2.28h7.813c1.258-.002 2.278-1.022 2.28-2.28V2.279C27.998 1.021 26.978.001 25.72 0zm.824 10.551c0 .201-.163.364-.364.364h-8.737c-.2 0-.364-.163-.364-.364V1.814c0-.2.163-.364.364-.364h8.737c.201 0 .364.163.364.364v8.737zM15.628 21.814v-5.21c0-.539.325-.976.725-.976.4 0 .725.437.725.977v5.209c0 .54-.324.977-.725.977-.4 0-.725-.438-.725-.977zm11.396-1.628H22.79v7.034c0 .54-.437.78-.977.78h-5.209c-.54 0-.977-.46-.977-1s.438-.45.977-.45h4.815v-9.945c0-.54.09-.977.63-.977s.741.437.741.977v2.125h4.233c.54 0 .976.243.976.783s-.437.673-.976.673zM28 24.419v2.604c0 .54-.325.977-.725.977-.4 0-.725-.437-.725-.977V24.42c0-.54.325-.977.725-.977.4 0 .725.437.725.977z" transform="translate(-218 -4563) translate(218 4563)"/>
            </g>
        </g>
    </g>
</svg>
