<svg xmlns="http://www.w3.org/2000/svg" width="43" height="28" viewBox="0 0 43 28">
    <g fill="none" fill-rule="evenodd">
        <g fill="#003C58" fill-rule="nonzero">
            <g>
                <path d="M8.105 0c-.965 0-.972 1.488 0 1.474h32.421c.422 0 .737.315.737.737v19.157c0 .973 1.474.973 1.474 0V2.211c0-1.212-1-2.211-2.21-2.211H8.104zM5.158 2.947c-.964 0-.964 1.474 0 1.474h32.42c.422 0 .738.315.738.737v19.158c0 .98 1.488.972 1.474 0V5.158c0-1.211-1-2.21-2.211-2.21H5.158zM2.21 5.895C.999 5.895 0 6.894 0 8.105V25.79C0 27.001 1 28 2.21 28h32.422c1.21 0 2.21-1 2.21-2.21V8.104c0-1.211-1-2.21-2.21-2.21H2.21zm0 1.473h32.42c.422 0 .737.316.737.737V25.79c0 .422-.315.737-.736.737H2.21c-.422 0-.737-.315-.737-.737V8.105c0-.421.315-.737.737-.737zm1.473 1.474c-.407 0-.737.33-.737.737v2.947c0 .99 1.474.967 1.474 0v-2.21h2.21c.99 0 .967-1.474 0-1.474H3.685zm14.737 0c-4.468 0-8.105 3.637-8.105 8.105 0 4.469 3.637 8.106 8.105 8.106s8.105-3.637 8.105-8.106c0-4.468-3.637-8.105-8.105-8.105zm11.79 0c-.967 0-.99 1.474 0 1.474h2.21v2.21c0 .967 1.474.99 1.474 0V9.58c0-.407-.33-.737-.737-.737H30.21zm-11.79 1.474c3.67 0 6.632 2.962 6.632 6.631 0 3.67-2.962 6.632-6.632 6.632-3.67 0-6.632-2.962-6.632-6.632 0-3.67 2.963-6.631 6.632-6.631zM16.994 21v-2.343h1.635L19.976 21h1.526v-2.343h.807v-1.01h-.807v-.674h.807v-1.01h-.807v-2.264H20.08v2.264h-1.62l-1.287-2.264h-1.6v2.264h-.892v1.01h.892v.674h-.892v1.01h.892V21h1.421zm1.05-3.353h-1.05v-.674h.664l.386.674zm2.036 0h-.659l-.381-.674h1.04v.674zM3.684 20.634c-.368-.002-.737.24-.737.734v2.948c0 .407.33.737.737.737h2.948c.966 0 .99-1.474 0-1.474h-2.21v-2.21c0-.484-.37-.732-.738-.735zm29.474 0c-.369.003-.737.251-.737.734v2.21h-2.21c-.99 0-.967 1.475 0 1.475h2.947c.407 0 .737-.33.737-.737v-2.948c0-.495-.369-.736-.737-.734z" transform="translate(-277 -4562) translate(277 4562)"/>
            </g>
        </g>
    </g>
</svg>
