<svg xmlns="http://www.w3.org/2000/svg" width="30" height="30" viewBox="0 0 30 30">
    <g fill="none" fill-rule="evenodd">
        <g>
            <g>
                <path fill="#EFF8FE" d="M5.5 7.5L7.44 20.056 23.799 20.056 25.5 13.778 18 7.5z" transform="translate(-215 -3672) translate(215 3672)"/>
                <path fill="#003C58" fill-rule="nonzero" d="M6.014 21.204L3.214 3H1.5C.672 3 0 2.328 0 1.5S.672 0 1.5 0h2.977c.144-.002.285.016.419.053.212.058.406.162.57.3.177.149.32.338.414.557.051.12.087.25.106.383L6.479 4.5H18v3H6.94l1.847 12h14.097l2.25-7.5h3.132l-2.83 9.43c-.19.635-.774 1.07-1.436 1.07H7.524c-.142.002-.28-.015-.413-.05-.225-.061-.43-.172-.6-.322-.155-.136-.284-.305-.373-.498-.061-.133-.104-.276-.124-.426zM12 27c0 1.657-1.343 3-3 3s-3-1.343-3-3 1.343-3 3-3 3 1.343 3 3zM25.5 27c0 1.657-1.343 3-3 3s-3-1.343-3-3 1.343-3 3-3 3 1.343 3 3zM25.5 0c.828 0 1.5.672 1.5 1.5V3h1.5c.828 0 1.5.672 1.5 1.5S29.328 6 28.5 6H27v1.5c0 .828-.672 1.5-1.5 1.5S24 8.328 24 7.5V6h-1.5c-.828 0-1.5-.672-1.5-1.5S21.672 3 22.5 3H24V1.5c0-.828.672-1.5 1.5-1.5z" transform="translate(-215 -3672) translate(215 3672)"/>
            </g>
        </g>
    </g>
</svg>
